<?xml version="1.0" encoding="UTF-8"?>
<svg id="Layer_1" data-name="Layer 1" xmlns="http://www.w3.org/2000/svg" viewBox="0 0 60 178.65">
  <g id="SVGRepo_iconCarrier" data-name="SVGRepo iconCarrier">
    <path d="M51.47,50.76l-17.51,7.91c1.16,30.14,39.01,19.95,17.51-7.91Z"/>
    <path d="M36.21,126.31c-7.25-14.82-18.77-26.23-29.13-20.61h0c-1.15,.64-2.22,1.41-3.17,2.31-12.21,11.28,6.35,42.79,25.01,51.25l13.87-12.81c-3.57-5.49-6.48-12.34-6.59-20.14Z"/>
    <path d="M30.32,51.81l17.23-7.77C47.04,23.56,25.29-5.83,10.13,1.01c-1.2,.53-2.33,1.21-3.36,2.02h-.01C-2.46,10.37,3.55,25.43,14.35,37.89c7.13,3.14,12.3,8.5,15.97,13.92Z"/>
    <path d="M47.69,152.47l-14.12,13.03c17.26,30.65,41.41-.2,14.12-13.03Z"/>
  </g>
</svg>